<?xml version="1.0" encoding="utf-8"?>
<!-- Generator: Adobe Illustrator 25.1.0, SVG Export Plug-In . SVG Version: 6.00 Build 0)  -->
<svg version="1.1" id="Layer_1" xmlns="http://www.w3.org/2000/svg" xmlns:xlink="http://www.w3.org/1999/xlink" x="0px" y="0px"
	 viewBox="0 0 100 100" style="enable-background:new 0 0 100 100;" xml:space="preserve">
<style type="text/css">
	.st0{fill-rule:evenodd;clip-rule:evenodd;fill:#181715;}
	.st1{fill:#333333;}
</style>
<g>
	<path class="st0" d="M50,0c27.6,0,50,22.4,50,50s-22.4,50-50,50S0,77.6,0,50l0,0C0,22.4,22.4,0,50,0L50,0z"/>
	<g>
		<path class="st1" d="M61,32H44.2c-2.3,0-4.2,1.8-4.2,4.1c0.1,0,0.2,0,0.4,0h16.1c2.9,0,5.2,2.3,5.2,5.2v20.9v0.1
			c2.2-0.1,4-2,4-4.2V36.2C65.3,33.9,63.4,32,61,32z"/>
		<path class="st1" d="M40.9,62.5h12.1v-3.4c0-3.4-2.8-6.1-6.1-6.1c-3.4,0-6.1,2.8-6.1,6.1C40.9,59.1,40.9,62.5,40.9,62.5z"/>
		<path class="st1" d="M59.8,42c0-2.4-1.9-4.3-4.2-4.3H38.7c-0.7,0-1.4,0.2-2,0.6c-1.3,0.7-2.2,2.2-2.2,3.7v21.7
			c0,2.4,1.9,4.3,4.2,4.3h16.9c1.6,0,3-0.8,3.7-2.2c0.4-0.6,0.6-1.3,0.6-2C59.8,63.7,59.8,42,59.8,42z M39,59.1
			c0-3.2,1.8-5.9,4.6-7.2c-1.8-1.3-2.8-3.6-2.3-6c0.5-2.2,2.2-3.8,4.3-4.3c3.8-0.8,7.2,2,7.2,5.8c0,1.9-1,3.6-2.4,4.7
			c2.6,1.3,4.6,4.1,4.6,7.2v4.3c0,0.5-0.5,1-1,1H40c-0.6,0-1-0.5-1-1C39,63.4,39,59.1,39,59.1z"/>
		<path class="st1" d="M47.1,51.1c2.2,0,3.8-1.8,3.8-3.8c0-2.2-1.8-3.8-3.8-3.8s-3.8,1.8-3.8,3.8C43.1,49.3,44.9,51.1,47.1,51.1z"/>
	</g>
</g>
</svg>
